<svg xmlns="http://www.w3.org/2000/svg" width="48" height="48" viewBox="0 0 48 48" fill="none">
  <path d="M14 36C11.8 36 10.02 37.8 10.02 40C10.02 42.2 11.8 44 14 44C16.2 44 18 42.2 18 40C18 37.8 16.2 36 14 36ZM4 4V8H8L15.6 24.32L13.2 28.8C12.84 29.44 12.64 30.2 12.64 31C12.64 33.2 14.44 35 16.64 35H36V31H17.4C17.12 31 16.92 30.8 16.92 30.52L17 30.2L18.6 27H30.6C32.04 27 33.32 26.2 34 25L41.56 11.2C41.84 10.72 42 10.2 42 9.64C42 8.72 41.28 8 40.36 8H11.76L9.96 4H4ZM34 36C31.8 36 30.02 37.8 30.02 40C30.02 42.2 31.8 44 34 44C36.2 44 38 42.2 38 40C38 37.8 36.2 36 34 36Z" fill="url(#ecommerce-gradient)"/>
  <defs>
    <linearGradient id="ecommerce-gradient" x1="4" y1="4" x2="42" y2="44" gradientUnits="userSpaceOnUse">
      <stop offset="0" stop-color="#A020F0"/>
      <stop offset="1" stop-color="#4B6EFF"/>
    </linearGradient>
  </defs>
</svg> 