<svg xmlns="http://www.w3.org/2000/svg" width="48" height="48" viewBox="0 0 48 48" fill="none">
  <path d="M24 4C12.972 4 4 12.972 4 24C4 35.028 12.972 44 24 44C35.028 44 44 35.028 44 24C44 12.972 35.028 4 24 4ZM39.7 16H33.46C32.76 13.12 31.72 10.42 30.36 8.08C34.58 9.46 37.98 12.34 39.7 16ZM24 8.08C25.94 10.62 27.46 13.66 28.38 17H19.62C20.54 13.66 22.06 10.62 24 8.08ZM8.3 28C8.06 26.72 7.98 25.38 7.98 24C7.98 22.62 8.08 21.28 8.3 20H15.52C15.36 21.32 15.22 22.64 15.22 24C15.22 25.36 15.34 26.68 15.52 28H8.3ZM8.3 32H14.54C15.24 34.88 16.28 37.58 17.64 39.92C13.42 38.54 10.02 35.66 8.3 32ZM14.54 16H8.3C10.02 12.34 13.42 9.46 17.64 10.84C16.28 13.18 15.24 15.88 14.54 16ZM24 39.92C22.06 37.38 20.54 34.34 19.62 31H28.38C27.46 34.34 25.94 37.38 24 39.92ZM29.26 27H18.74C18.54 25.68 18.42 24.36 18.42 24C18.42 23.64 18.54 22.32 18.74 21H29.26C29.46 22.32 29.58 23.64 29.58 24C29.58 24.36 29.46 25.68 29.26 27ZM30.36 39.92C31.72 37.58 32.76 34.88 33.46 32H39.7C37.98 35.66 34.58 38.54 30.36 39.92ZM32.48 28C32.64 26.68 32.78 25.36 32.78 24C32.78 22.64 32.66 21.32 32.48 20H39.7C39.94 21.28 40.02 22.62 40.02 24C40.02 25.38 39.92 26.72 39.7 28H32.48Z" fill="url(#web-gradient)"/>
  <defs>
    <linearGradient id="web-gradient" x1="4" y1="4" x2="44" y2="44" gradientUnits="userSpaceOnUse">
      <stop offset="0" stop-color="#A020F0"/>
      <stop offset="1" stop-color="#4B6EFF"/>
    </linearGradient>
  </defs>
</svg> 