<svg viewBox="0 0 128 128" xmlns="http://www.w3.org/2000/svg">
  <path fill="#0db7ed" d="M124.8 52.1c-4.3-2.5-10-3.3-15.7-2.5-1.3-9.4-6.3-17.3-15.1-23.3l-3.1-2.1-2.1 3.1c-4.1 6.2-5.2 16.4-2.8 23 1.2 3.3 3.1 6.1 5.6 8.5-2.1 1.1-4.6 2.1-7.2 2.6-4.1.8-8.5 1.2-13.1 1.2H7.6l-.7 3.1c-1.4 6.2-1.4 25.7 5.8 40.6 5.4 11.1 13.8 19.1 24.8 23.2 9.8 3.7 21.4 4.1 33.6 2.1 23.8-4.1 46.3-15.4 61.9-39.4 9.3.2 20.8-1.9 28.1-12.9.3-.4.5-.9.7-1.3l1.2-2.5-2.1-1.3c-8.4-5.3-19.3-4.6-35.1-.2zm-82.8-8.5h-8.8v8.8h8.8v-8.8zm0-15.1h-8.8v8.8h8.8v-8.8zm12.3 15.1h-8.8v8.8h8.8v-8.8zm0-15.1h-8.8v8.8h8.8v-8.8zm0-15.1h-8.8v8.8h8.8v-8.8zm12.3 30.2h-8.8v8.8h8.8v-8.8zm0-15.1h-8.8v8.8h8.8v-8.8zm0-15.1h-8.8v8.8h8.8v-8.8zm12.3 15.1h-8.8v8.8h8.8v-8.8zm0-15.1h-8.8v8.8h8.8v-8.8zm12.3 0h-8.8v8.8h8.8v-8.8z"/>
</svg> 