<svg viewBox="0 0 128 128" xmlns="http://www.w3.org/2000/svg">
  <path fill="#E34F26" d="M19.037 113.876L9.032 1.661h109.936l-10.016 112.198-45.019 12.48z"/>
  <path fill="#EF652A" d="M64 116.8l36.378-10.086 8.559-95.878H64z"/>
  <path fill="#EBEBEB" d="M64 52.455H45.788L44.53 38.361H64V24.599H29.489l.33 3.692 3.382 37.927H64zm0 35.743l-.049.013-12.321-3.328-.788-8.823H37.728l1.550 17.372 22.674 6.292.049-.015z"/>
  <path d="M28.034 1.661h5.622v5.551h5.144V1.661h5.622v16.822h-5.622v-5.633h-5.144v5.633h-5.622V1.661zm23.013 5.579H45.73V1.661h15.131v5.579h-5.318v11.243h-5.622V7.24h-.874zm13.963-5.579h5.862l3.607 5.911 3.606-5.911h5.862v16.822h-5.575V9.765l-3.869 5.981h-.099l-3.869-5.981v8.718h-5.525V1.661zm21.213 0h5.622v11.262h7.907v5.561h-13.529V1.661z"/>
  <path fill="#FFF" d="M63.952 52.455v13.763h16.947l-1.597 17.849-15.35 4.145v14.284l28.215-7.82.207-2.325 3.234-36.233.335-3.696h-3.708zm0-27.856v13.762h33.244l.276-3.092.628-6.978.329-3.692z"/>
</svg> 