<svg viewBox="0 0 128 128" xmlns="http://www.w3.org/2000/svg">
  <path fill="#F7DF1E" d="M2 2h124v124H2z"/>
  <path fill="#000" d="M69.402 73.29c2.645 4.316 6.115 7.496 12.93 7.496 5.424 0 8.895-2.71 8.895-6.45 0-4.48-3.558-6.062-9.544-8.684l-3.276-1.406c-9.457-4.025-15.74-9.067-15.74-19.74 0-9.826 7.496-17.322 19.213-17.322 8.34 0 14.326 2.898 18.64 10.48l-10.218 6.563c-2.25-4.025-4.677-5.607-8.422-5.607-3.832 0-6.267 2.43-6.267 5.607 0 3.925 2.435 5.508 8.07 7.934l3.277 1.406c11.146 4.766 17.429 9.633 17.429 20.57 0 11.797-9.282 18.27-21.733 18.27-12.188 0-20.054-5.805-23.895-13.387l10.836-6.23zm-40.24-1.406c1.969 3.488 3.75 6.45 8.07 6.45 4.13 0 6.715-1.62 6.715-7.934V27.305h13.387V70.4c0 13.074-7.67 19.04-18.855 19.04-10.11 0-15.952-5.244-18.942-11.556l10.625-6.23z"/>
</svg> 