<svg viewBox="0 0 128 128" xmlns="http://www.w3.org/2000/svg">
  <defs>
    <linearGradient id="mongodb-gradient1" x1="0%" y1="0%" x2="100%" y2="100%">
      <stop offset="0%" style="stop-color:#47A248"/>
      <stop offset="100%" style="stop-color:#4DB33D"/>
    </linearGradient>
    <linearGradient id="mongodb-gradient2" x1="0%" y1="0%" x2="100%" y2="100%">
      <stop offset="0%" style="stop-color:#4DB33D"/>
      <stop offset="100%" style="stop-color:#47A248"/>
    </linearGradient>
  </defs>
  <path fill="url(#mongodb-gradient1)" d="M64 12c-28.7 0-52 23.3-52 52s23.3 52 52 52 52-23.3 52-52-23.3-52-52-52zm0 96c-24.3 0-44-19.7-44-44s19.7-44 44-44 44 19.7 44 44-19.7 44-44 44z"/>
  <path fill="url(#mongodb-gradient2)" d="M64 24c-22.1 0-40 17.9-40 40s17.9 40 40 40 40-17.9 40-40-17.9-40-40-40zm-8 28c0-2.2 1.8-4 4-4s4 1.8 4 4v8h8c2.2 0 4 1.8 4 4s-1.8 4-4 4h-8v8c0 2.2-1.8 4-4 4s-4-1.8-4-4v-8h-8c-2.2 0-4-1.8-4-4s1.8-4 4-4h8v-8z"/>
  <path fill="#47A248" d="M64 32c17.7 0 32 14.3 32 32s-14.3 32-32 32-32-14.3-32-32 14.3-32 32-32zm16 24l-8 8-8-8-8 8v16l8 8 8-8 8 8V64l-8-8z"/>
  <path fill="white" d="M64 44l8 8v12l-8 8-8-8V52l8-8z"/>
</svg> 