<svg viewBox="0 0 128 128" xmlns="http://www.w3.org/2000/svg">
  <path fill="#47A248" d="M88.038 42.812c1.605 4.643 2.761 9.383 3.141 14.296.472 6.095.256 12.147-1.029 18.142-.035.165-.109.32-.164.48-.403.001-.814-.049-1.208.012-3.329.523-6.655 1.065-9.981 1.604-3.438.557-6.881 1.092-10.313 1.687-1.216.21-2.721-.041-3.212 1.641-.014.046-.154.054-.235.08l.166-10.051c-.057-8.084-.113-16.168-.169-24.252l1.602-.275c2.62-.429 5.24-.864 7.862-1.281 3.129-.497 6.261-.99 9.392-1.485 1.5-.235 3.134-.018 4.918-.199z"/>
  <path fill="#47A248" d="M61.729 110.054c-1.69-1.453-3.439-2.842-5.059-4.37-8.717-8.222-15.093-17.899-18.233-29.566-.865-3.211-1.442-6.474-1.627-9.792-.13-2.322-.318-4.665-.154-6.975.437-6.144 1.325-12.229 3.127-18.147l.099-.138c.175.233.427.439.516.702 1.759 5.18 3.505 10.364 5.242 15.551 5.458 16.3 10.909 32.604 16.376 48.9.107.318.384.579.583.866l-.87 2.069z"/>
  <path fill="#47A248" d="M88.038 42.812c-1.784.181-3.418-.036-4.918.199-3.131.495-6.263.988-9.392 1.485-2.622.417-5.242.852-7.862 1.281l-1.602.275-.012-1.045c-.053-4.906-.126-9.811-.185-14.717-.023-1.93-.138-3.893.024-5.815.059-.695.111-1.393.092-2.086-.236-8.405-.681-16.768-2.803-24.971-.417-1.611-.567-3.283-.138-5.037.277-1.124.11-2.305.649-3.652.002-.006.053-.024.098-.043l.12.025c-.02.64-.046 1.281-.065 1.921-.01.334.04.675.013 1.006-.048.584-.16 1.156-.196 1.744-.101 1.634-.128 3.275-.154 4.912-.035 2.228-.086 4.457-.105 6.686-.028 3.29.013 6.58.017 9.871.002 1.849-.024 3.699.003 5.548.024 1.677.082 3.352.125 5.029l.012 1.045z"/>
</svg> 