<svg viewBox="0 0 128 128" xmlns="http://www.w3.org/2000/svg">
  <defs>
    <linearGradient id="redis-gradient1" x1="0%" y1="0%" x2="100%" y2="100%">
      <stop offset="0%" style="stop-color:#DC382D"/>
      <stop offset="100%" style="stop-color:#A41E22"/>
    </linearGradient>
    <linearGradient id="redis-gradient2" x1="0%" y1="0%" x2="100%" y2="100%">
      <stop offset="0%" style="stop-color:#FFFFFF"/>
      <stop offset="100%" style="stop-color:#E6E6E6"/>
    </linearGradient>
  </defs>
  <ellipse cx="64" cy="96" rx="56" ry="24" fill="url(#redis-gradient1)"/>
  <ellipse cx="64" cy="80" rx="56" ry="24" fill="url(#redis-gradient2)"/>
  <ellipse cx="64" cy="64" rx="56" ry="24" fill="url(#redis-gradient1)"/>
  <ellipse cx="64" cy="48" rx="56" ry="24" fill="url(#redis-gradient2)"/>
  <ellipse cx="64" cy="32" rx="56" ry="24" fill="url(#redis-gradient1)"/>
  <path fill="white" d="M32 32c0-4 4-8 8-8h48c4 0 8 4 8 8v8c0 4-4 8-8 8H40c-4 0-8-4-8-8v-8z"/>
  <path fill="#DC382D" d="M45 36h6v4h-6v-4zm12 0h6v4h-6v-4zm12 0h6v4h-6v-4z"/>
</svg> 