<svg viewBox="0 0 128 128" xmlns="http://www.w3.org/2000/svg">
  <defs>
    <linearGradient id="stripe-gradient" x1="0%" y1="0%" x2="100%" y2="100%">
      <stop offset="0%" style="stop-color:#635BFF"/>
      <stop offset="100%" style="stop-color:#5A53F5"/>
    </linearGradient>
  </defs>
  <rect x="8" y="8" width="112" height="112" rx="24" fill="url(#stripe-gradient)"/>
  <path fill="white" d="M54.4 58.7c0-3.4-2.4-4.6-6.4-5.7-5.2-1.4-12.4-3.2-12.4-11.6 0-7.4 6.2-12.2 15.6-12.2 7 0 13.4 2.4 18.2 6.8l6.8-8.6c-6.2-5.4-14.8-8.4-24.6-8.4-15.6 0-26.8 9.2-26.8 22.6 0 14.8 10.8 19.4 19.4 22 5.2 1.6 9.8 3 9.8 6.8 0 4.2-3.6 6.2-9.4 6.2-8.6 0-16.8-3.8-23.2-10.4l-7.6 8.2c7.8 8.2 18.6 12.6 30.4 12.6 16.2 0 27.4-8.4 27.4-22.2zm46.2-29.4c-8.8 0-15.6 3.8-19.4 10.2v-9h-11.4v60.2h11.8V73.9c3.8 6 10.4 9.6 19 9.6 14.6 0 25.8-11.8 25.8-27s-11.2-27-25.8-27zm-2.8 43.2c-8.2 0-14.6-6.8-14.6-16.2s6.4-16.2 14.6-16.2 14.6 6.8 14.6 16.2-6.4 16.2-14.6 16.2z"/>
</svg> 