<svg viewBox="0 0 128 128" xmlns="http://www.w3.org/2000/svg">
  <defs>
    <linearGradient id="svelte-gradient1" x1="0%" y1="0%" x2="100%" y2="100%">
      <stop offset="0%" style="stop-color:#FF3E00"/>
      <stop offset="100%" style="stop-color:#FF3E00"/>
    </linearGradient>
    <linearGradient id="svelte-gradient2" x1="0%" y1="0%" x2="100%" y2="100%">
      <stop offset="0%" style="stop-color:#FF3E00"/>
      <stop offset="100%" style="stop-color:#FF8A00"/>
    </linearGradient>
  </defs>
  <path fill="url(#svelte-gradient1)" d="M96.5 27.5c-6.8-12.4-21.6-18.3-35.4-14.2L38.2 21.1c-9.1 2.7-16.5 9.1-20.2 17.5-2.6 6-2.6 12.6-.7 18.9 1.3 4.3 3.7 8.2 6.9 11.4l-1.4 2.1c-4.6 7.1-5.6 16.1-2.7 24.1 4.1 11.3 14.2 19.8 26.2 22l22.9 4.2c13.8 2.5 28.1-2.9 35.4-14.2 4.9-7.6 6.3-16.9 3.9-25.5-1.3-4.3-3.7-8.2-6.9-11.4l1.4-2.1c4.6-7.1 5.6-16.1 2.7-24.1-1.5-4.1-4.1-7.8-7.4-10.8z"/>
  <path fill="url(#svelte-gradient2)" d="M74.2 42.9c-2.4-3.6-6.4-6.1-10.8-6.8-4.4-.7-8.9.6-12.2 3.6l-20.5 18.8c-4.7 4.3-6.1 11.4-3.5 17.2 2.6 5.8 8.6 9.5 15 9.1l1.7-.1c-1.1 2.4-1.3 5.1-.5 7.6 1.5 4.7 5.7 8.1 10.6 8.7 4.9.6 9.8-1.5 12.7-5.5l20.5-28.3c2.9-4 3.3-9.3 1-13.6-1.5-2.8-4-5.1-7-6.3-3-.8-6.2-.5-9 .9l-1.7 1c1.1-2.4 1.3-5.1.5-7.6-.8-2.5-2.4-4.7-4.5-6.2z"/>
  <path fill="white" d="M64 48c-8.8 0-16 7.2-16 16s7.2 16 16 16 16-7.2 16-16-7.2-16-16-16zm0 24c-4.4 0-8-3.6-8-8s3.6-8 8-8 8 3.6 8 8-3.6 8-8 8z"/>
</svg> 