<svg viewBox="0 0 128 128" xmlns="http://www.w3.org/2000/svg">
  <path fill="#38BDF8" d="M64 0C46.4 0 37.6 9.6 32 28.8c8-9.6 17.3-13.2 28-10.8 6.09 1.52 10.43 5.93 15.24 10.81C81.81 35.51 90.04 43.2 112 43.2c17.6 0 26.4-9.6 32-28.8-8 9.6-17.3 13.2-28 10.8-6.09-1.52-10.43-5.93-15.24-10.81C94.19 7.69 85.96 0 64 0zM32 43.2C14.4 43.2 5.6 52.8 0 72c8-9.6 17.3-13.2 28-10.8 6.09 1.52 10.43 5.93 15.24 10.81C49.81 78.71 58.04 86.4 80 86.4c17.6 0 26.4-9.6 32-28.8-8 9.6-17.3 13.2-28 10.8-6.09-1.52-10.43-5.93-15.24-10.81C62.19 50.89 53.96 43.2 32 43.2z"/>
</svg> 